<?xml version="1.0" encoding="utf-8"?><svg viewBox="0 0 30 30" xmlns="http://www.w3.org/2000/svg" xmlns:xlink="http://www.w3.org/1999/xlink"><style>:root>svg{display:none}:root>svg:target{display:block}</style><svg viewBox="0 0 9 14" id="arrow-menu" xmlns="http://www.w3.org/2000/svg"><path fill-rule="evenodd" clip-rule="evenodd" d="M1.173 13.016a1 1 0 010-1.414l4.835-4.835-4.835-4.834A1 1 0 012.587.519L8.13 6.06a1 1 0 010 1.415l-5.542 5.541a1 1 0 01-1.414 0z"/></svg><svg viewBox="0 0 22 22" id="arrow-slider" xmlns="http://www.w3.org/2000/svg"><path fill-rule="evenodd" clip-rule="evenodd" d="M10.293.293a1 1 0 011.414 0l10 10a1 1 0 010 1.414l-10 10a1 1 0 01-1.414-1.414L19.586 11l-9.293-9.293a1 1 0 010-1.414z"/><path fill-rule="evenodd" clip-rule="evenodd" d="M0 11a1 1 0 011-1h20a1 1 0 110 2H1a1 1 0 01-1-1z"/></svg><svg viewBox="0 0 20 11" id="arrow-spoiler" xmlns="http://www.w3.org/2000/svg"><path fill-rule="evenodd" clip-rule="evenodd" d="M19.04.793a1 1 0 010 1.414l-8.333 8.333a1 1 0 01-1.414 0L.96 2.207A1 1 0 012.374.793L10 8.419 17.626.793a1 1 0 011.415 0z"/></svg><svg viewBox="0 0 30 30" id="cart" xmlns="http://www.w3.org/2000/svg"><path fill-rule="evenodd" clip-rule="evenodd" d="M11.25 26a.25.25 0 100 .5.25.25 0 000-.5zM9 26.25a2.25 2.25 0 114.5 0 2.25 2.25 0 01-4.5 0zM25 26a.25.25 0 100 .5.25.25 0 000-.5zm-2.25.25a2.25 2.25 0 114.5 0 2.25 2.25 0 01-4.5 0zm-22.5-25a1 1 0 011-1h5a1 1 0 01.98.804L8.32 6.5h20.43a1 1 0 01.982 1.187l-2.001 10.495A3.5 3.5 0 0124.24 21H12.11a3.5 3.5 0 01-3.49-2.817L6.53 7.743a.995.995 0 01-.018-.092L5.431 2.25H1.25a1 1 0 01-1-1zM8.72 8.5l1.86 9.293A1.5 1.5 0 0012.08 19h12.19a1.5 1.5 0 001.5-1.207L27.54 8.5H8.721z"/></svg><svg viewBox="0 0 24 24" id="check" xmlns="http://www.w3.org/2000/svg"><path d="M20.285 2L9 13.567 3.714 8.556 0 12.272 9 21 24 5.715z"/></svg><svg viewBox="0 0 24 24" id="close" xmlns="http://www.w3.org/2000/svg"><path d="M23.954 21.03l-9.184-9.095 9.092-9.174L21.03-.046l-9.09 9.179L2.764.045l-2.81 2.81L9.14 11.96.045 21.144l2.81 2.81 9.112-9.192 9.18 9.1z"/></svg><svg viewBox="0 0 30 26" id="favorite" xmlns="http://www.w3.org/2000/svg"><path d="M26.05 3.762a6.875 6.875 0 00-9.725 0L15 5.087l-1.325-1.325a6.877 6.877 0 10-9.725 9.726l1.325 1.325L15 24.538l9.725-9.726 1.325-1.324a6.875 6.875 0 000-9.726z"/></svg><svg viewBox="0 0 19 26" id="play" xmlns="http://www.w3.org/2000/svg"><path d="M18.636 13.001L.373 25.654V.348l18.263 12.653z"/></svg><svg viewBox="0 0 30 30" id="search" xmlns="http://www.w3.org/2000/svg"><path fill-rule="evenodd" clip-rule="evenodd" d="M13.75 4.75a9 9 0 100 18 9 9 0 000-18zm-11 9c0-6.075 4.925-11 11-11s11 4.925 11 11-4.925 11-11 11-11-4.925-11-11z"/><path fill-rule="evenodd" clip-rule="evenodd" d="M20.105 20.105a1 1 0 011.415 0l5.437 5.438a1 1 0 01-1.414 1.414l-5.438-5.437a1 1 0 010-1.415z"/></svg></svg>