<svg width="48" height="53" fill="none" xmlns="http://www.w3.org/2000/svg">
  <path d="M27.539 1c-.93.335-1.353.682-1.498 1.236-.049.177-.163 1.06-.254 1.966-.338 3.397-.604 4.754-1.305 6.568-.434 1.138-.767 1.546-2.313 2.885-1.22 1.053-1.794 1.62-2.235 2.222-.338.462-.513.822-1.637 3.39-1.69 3.872-2.826 5.856-4.046 7.098-.592.602-1.093.907-1.613.973-.266.037-.296.025-.628-.25a3.412 3.412 0 0 0-1.226-.663c-.29-.085-.785-.097-3.811-.097-3.83 0-3.763-.006-4.494.384-.743.395-1.395 1.284-1.576 2.154-.133.615-.133 19.326 0 19.94.241 1.163 1.183 2.143 2.355 2.448.526.134 6.898.134 7.423 0a3.135 3.135 0 0 0 1.432-.81l.404-.383.26.06c.145.037 1.383.268 2.748.518 1.365.256 2.803.53 3.19.615 3.212.7 7.199 1.022 13.565 1.108 3.044.036 4.004-.007 5.297-.226.755-.134 1.866-.48 2.482-.779.43-.207 1.39-.9 2.084-1.497 1.468-1.272 2.21-2.995 1.909-4.425-.127-.579-.042-.725 1.093-1.942 1.1-1.175 1.377-1.577 1.594-2.307.127-.426.127-1.2 0-1.704-.054-.22-.247-.749-.422-1.169-.175-.426-.35-.895-.393-1.053l-.066-.28.44-.475c1.468-1.546 1.819-3.226 1.027-4.857a4.43 4.43 0 0 0-.604-.889c-.205-.219-.368-.444-.368-.499 0-.152.181-.48.682-1.242.49-.73.665-1.126.81-1.807.108-.518.078-.706-.224-1.62-.61-1.856-1.667-3.299-3.098-4.236-.568-.371-.822-.475-1.552-.62-1.01-.202-1.97-.305-3.34-.372-1.643-.073-6.777-.098-7.544-.037l-.592.049v-.2c0-.238.157-.81.38-1.407.236-.62 1.027-2.331 1.371-2.958.634-1.163 1.25-2.758 1.547-4.005.58-2.484.35-5.345-.58-7.17-.822-1.614-2.229-2.855-3.896-3.428-.942-.322-2.199-.42-2.778-.206Zm1.938 2.679c1.202.408 2.253 1.485 2.718 2.775.345.956.453 2.843.236 4.079-.248 1.448-.55 2.24-1.812 4.808-1.474 2.995-1.721 3.732-1.727 5.174-.006 1.607.283 2.07 1.455 2.313.677.146 1.722.177 2.996.097 1.274-.079 6.759 0 7.695.116.984.122 1.66.256 1.92.384.333.164.907.687 1.257 1.144.32.426.743 1.205.954 1.765l.151.402-.145.268c-.078.146-.344.62-.598 1.059-.616 1.053-.712 1.327-.749 2.039-.018.48 0 .645.109.968.157.474.435.925.87 1.4.374.407.429.56.374.961-.054.408-.308.828-.863 1.425-.544.584-.761.955-.894 1.527-.188.798-.073 1.467.453 2.727.362.87.453 1.2.404 1.413-.024.085-.398.535-.833 1.004-.979 1.04-1.28 1.436-1.565 2.057-.368.785-.422 1.193-.356 2.496.012.353-.006.475-.127.712-.265.542-.9 1.157-1.999 1.948-.73.523-1.721.81-3.346.962-.894.079-5.213.085-7.308 0-4.446-.17-6.693-.402-9.664-1.005-.894-.176-2.555-.493-3.685-.7-1.13-.207-2.071-.395-2.095-.42-.019-.018-.049-4.011-.06-8.874l-.019-8.832.586-.195c.845-.28 1.461-.682 2.229-1.455 1.497-1.516 2.82-3.792 4.699-8.102.428-.986.863-1.978.966-2.203.266-.584.719-1.06 2.452-2.587 1.643-1.443 2.163-2.16 2.803-3.871.713-1.887 1.05-3.549 1.335-6.525.072-.737.139-1.37.15-1.413.03-.103.454-.036 1.033.159ZM10.391 29.085l.145.17v9.557c0 6.44-.018 9.6-.06 9.678-.157.292-.206.299-3.503.299-3.298 0-3.346-.007-3.503-.299-.043-.079-.06-3.238-.06-9.684v-9.568l.174-.177.181-.183 3.238.019 3.243.018.145.17Z" fill="#fff"/>
</svg>
