<svg width="55" height="58" fill="none" xmlns="http://www.w3.org/2000/svg">
  <path d="M27.04.359c-.68.134-1.399.515-1.95 1.036-.528.497-1.085 1.234-2.042 2.703-1.931 2.962-2.14 3.248-2.384 3.248-.191 0-1.595-.485-3.945-1.37-2.21-.836-2.494-.912-3.312-.912-1.868 0-3.312 1.106-3.898 2.985-.128.415-.133.52-.128 1.93.006 1.564.105 3.881.203 4.759.064.597.018.749-.278.954-.238.164-1.05.421-3.208 1.018-2.628.732-3.19.93-3.765 1.323-.765.532-1.456 1.404-1.664 2.1-.122.428-.116 2.078.011 2.465.232.713.783 1.545 2.297 3.458 1.329 1.68 2.118 2.733 2.164 2.891.052.17-.215.55-1.81 2.575-1.508 1.914-2.094 2.722-2.378 3.301-.354.697-.371.79-.371 1.85 0 .836.017 1.018.121 1.293.29.784.952 1.592 1.729 2.1.551.364 1.334.627 4.45 1.481 2.134.586 2.546.75 2.685 1.06.052.105.052.298.017.69-.098.966-.197 3.26-.203 4.782-.005 1.299.006 1.539.1 1.843.283.919.765 1.656 1.432 2.2.684.55 1.369.802 2.32.855.551.023.673.012 1.276-.146.372-.1 1.613-.533 2.756-.966a98.353 98.353 0 0 1 2.778-1.012l.69-.223.262.293c.145.158.673.919 1.177 1.691 2.338 3.594 2.785 4.138 3.91 4.706.603.304.847.356 1.653.356.79 0 1.027-.052 1.596-.321 1.125-.545 1.624-1.136 3.967-4.74.505-.773 1.033-1.534 1.178-1.692l.26-.293.691.223c.377.122 1.555.544 2.605.942 3.022 1.141 3.37 1.235 4.27 1.182 1.066-.064 1.832-.421 2.604-1.205.545-.556.823-1.019 1.055-1.762.128-.416.134-.515.128-1.931-.011-1.551-.093-3.453-.203-4.63-.11-1.17-.273-1.076 3.608-2.153 2.355-.656 3.051-.896 3.556-1.235.627-.427 1.253-1.124 1.555-1.732.226-.457.25-.55.278-1.095.052-.837-.017-1.574-.197-2.054-.22-.591-.743-1.346-2.181-3.166-1.572-1.99-2.135-2.739-2.181-2.932a.425.425 0 0 1 .035-.281c.104-.199.638-.901 2.036-2.651 1.821-2.282 2.198-2.85 2.401-3.617.14-.527.128-2.013-.011-2.446-.174-.503-.47-.96-.975-1.475-.772-.79-1.096-.942-3.394-1.61-.655-.187-1.45-.415-1.769-.497-1.873-.503-2.511-.749-2.715-1.03-.104-.146-.104-.205-.046-.878.093-1.07.174-2.633.215-4.354.029-1.428.023-1.55-.087-1.99-.517-1.978-2.025-3.19-3.957-3.19-.783 0-1.31.153-3.764 1.078-2.205.837-3.278 1.205-3.504 1.205-.197 0-.51-.415-1.862-2.487-1.386-2.118-1.984-2.932-2.518-3.435C29.68.739 28.82.388 27.793.353a6.991 6.991 0 0 0-.754.006Zm1.078 3.365c.267.164.54.544 2.042 2.832 1.653 2.523 2.007 2.997 2.471 3.336.795.574 1.52.779 2.5.708.725-.047 1.085-.158 3.266-1.006 3.11-1.212 3.678-1.37 4.055-1.17.354.18.423.391.423 1.287 0 .439-.04 1.633-.092 2.657-.116 2.294-.087 3.704.08 4.172.157.451.25.615.57 1.042.307.41.893.913 1.328 1.135.33.164 1.392.486 3.596 1.095 2.303.626 2.837.807 3.104 1.036.272.24.313.35.232.65-.11.432-.598 1.111-2.553 3.552-1.073 1.346-1.67 2.206-1.856 2.698-.104.263-.14.509-.162 1.035-.058 1.534.07 1.774 2.709 5.074 1.833 2.289 1.804 2.248 1.867 2.47.082.281-.034.656-.266.86-.244.211-.928.445-3.249 1.089-2.372.661-3.364.983-3.7 1.2-.778.497-1.55 1.533-1.724 2.317-.087.398-.075 1.943.03 4.097.121 2.335.104 3.19-.059 3.476a.62.62 0 0 1-.353.287c-.215.076-.29.07-.755-.035-.284-.07-1.531-.521-2.778-1.001-1.242-.48-2.442-.936-2.669-1.007-.487-.158-1.612-.222-2.146-.123-.43.082-1.003.352-1.41.656-.446.34-.835.872-2.418 3.266-.778 1.176-1.532 2.294-1.683 2.481-.585.743-.945.75-1.549.023-.162-.199-.858-1.211-1.537-2.247-1.374-2.107-1.902-2.867-2.216-3.195-.266-.287-.812-.638-1.287-.843-.348-.152-.418-.164-1.27-.164-1.085 0-1.004-.023-3.655 1.007-2.489.965-3.197 1.205-3.608 1.211-.314.006-.348-.006-.552-.216l-.22-.217-.017-.76c-.012-.416.023-1.592.07-2.617.115-2.323.115-3.546.005-4.073-.127-.626-.447-1.164-1.015-1.738-.302-.304-.627-.574-.841-.685-.342-.181-1.346-.491-3.829-1.182-2.18-.603-2.75-.802-2.999-1.06-.197-.198-.22-.25-.22-.52 0-.17.04-.38.087-.48.052-.094.824-1.094 1.717-2.224 1.99-2.51 2.245-2.856 2.448-3.312.232-.521.406-1.376.36-1.774-.047-.42-.25-1.27-.36-1.492-.134-.27-.922-1.3-2.396-3.13-1.943-2.424-2.048-2.6-1.839-3.114.157-.375.696-.58 3.376-1.305 1.932-.521 3.156-.902 3.62-1.124.32-.152.54-.316.841-.626.47-.48.731-.896.952-1.51.203-.568.226-1.428.104-3.997-.157-3.23-.128-3.752.209-4.038.36-.31.83-.194 3.66.907 2.657 1.024 2.906 1.112 3.568 1.188 1.41.163 2.604-.328 3.41-1.405.192-.252.79-1.141 1.34-1.978 2.263-3.447 2.379-3.6 2.82-3.6a.89.89 0 0 1 .423.124Z" fill="#fff"/>
  <path d="M22.126 17.12c-1.102.14-2.42.965-3.127 1.972-1.032 1.451-1.195 3.283-.43 4.852.61 1.258 1.805 2.253 3.128 2.61.62.17 1.659.17 2.297-.006a4.873 4.873 0 0 0 3.463-3.447c.174-.644.174-1.844 0-2.487-.366-1.358-1.416-2.581-2.669-3.108-.783-.334-1.844-.486-2.662-.386Zm1.456 3.418c.945.468 1.073 1.796.238 2.54-.424.38-.934.456-1.509.24-.429-.165-.62-.334-.812-.738-.237-.51-.255-.878-.063-1.27.168-.345.701-.884.922-.936.319-.07.91.011 1.224.164Zm10.064-2.078c-.54.111-.615.205-3.353 4.073-2.244 3.172-8.475 12.15-9.495 13.677-.424.632-.801 1.252-.836 1.37-.081.24-.035.819.081 1.106.116.269.424.602.696.743.29.152.9.205 1.248.105.296-.076.383-.164 1.05-1.053 1.374-1.832 11.682-16.633 12.303-17.663.163-.275.186-.362.186-.731 0-.591-.093-.884-.389-1.182-.354-.351-.998-.55-1.49-.445Zm-1.902 12.945c-.43.082-.824.229-1.34.498-1.184.608-2.013 1.644-2.39 2.979-.174.626-.186 1.907-.023 2.487.406 1.404 1.299 2.475 2.587 3.096.765.368 1.12.444 2.059.444.957-.005 1.317-.081 2.088-.474.975-.485 1.688-1.205 2.147-2.159.394-.814.464-1.141.458-2.165 0-.826-.012-.907-.186-1.434-.563-1.697-1.856-2.868-3.579-3.225-.551-.117-1.375-.135-1.821-.047Zm1.357 3.278c.661.251 1.033.795 1.038 1.521.006.328-.017.422-.162.644-.377.585-.61.743-1.166.796-.963.088-1.624-.41-1.694-1.294-.064-.749.25-1.322.876-1.62.424-.2.673-.211 1.108-.047Z" fill="#fff"/>
</svg>
