<svg width="59" height="59" fill="none" xmlns="http://www.w3.org/2000/svg">
  <path d="M31.117 17.67a1.613 1.613 0 0 0-3.227 0v14.07l9.52 6.454a1.614 1.614 0 1 0 1.79-2.679l-8.067-5.47-.016-12.376Z" fill="#fff"/>
  <path d="M54.03 20.993a11.97 11.97 0 0 1-3.083.936A22.67 22.67 0 1 1 37.072 8.052c.172-1.064.487-2.1.936-3.081A25.914 25.914 0 1 0 54.03 20.993Z" fill="#fff"/>
  <path d="M29.632 10.618a18.653 18.653 0 0 0-3.663 36.934l.436-2.533a16.134 16.134 0 0 1-8.036-27.833 16.135 16.135 0 0 1 19.96-1.372 12.02 12.02 0 0 1-1.258-3.598 18.474 18.474 0 0 0-7.439-1.598Zm19.363 7.455a8.068 8.068 0 1 0 0-16.136 8.068 8.068 0 0 0 0 16.136Z" fill="#fff"/>
</svg>
