<svg width="49" height="56" fill="none" xmlns="http://www.w3.org/2000/svg">
  <path d="M15.536.878c-1.209.23-2.31.804-3.479 1.816-1.52 1.321-2.343 2.845-2.445 4.514-.114 2.013.896 4.042 3.03 6.072 1.072 1.011 2.451 2.057 3.904 2.95l.812.501-7.502.028-7.496.028-.312.146a2.11 2.11 0 0 0-.96.95l-.147.31V29.66l.125.264c.318.686.959 1.09 1.804 1.152l.483.034.011 11.698.017 11.699.193.354c.221.399.443.618.874.843l.295.152h39.722l.386-.186c.448-.219.76-.567.942-1.05.119-.316.119-.316.119-11.919V31.095h.215c.364 0 .925-.112 1.158-.23.352-.18.71-.54.88-.889l.159-.314V18.193l-.154-.32a2.022 2.022 0 0 0-.953-.94l-.312-.146-6.838-.028c-3.762-.017-6.792-.045-6.741-.067.363-.146 2.07-1.501 2.905-2.294 1.419-1.355 2.224-2.636 2.53-4.02.109-.466.08-1.455-.056-1.961C38.387 7.175 37.468 6 36.14 5.123c-.862-.574-1.685-.922-2.52-1.068-.59-.102-1.753-.045-2.263.112-2.355.736-4.183 3.08-5.618 7.218l-.352 1.006-.125-.416C23.378 5.612 20.825 1.868 17.783.991c-.635-.186-1.6-.23-2.247-.113Zm1.6 3.941c.443.214 1.095.883 1.595 1.625 1.015 1.529 2.184 4.368 2.979 7.251.142.523.272 1.007.295 1.063.023.084-.159.011-.783-.315-3.422-1.776-6.072-3.755-7.127-5.318-.466-.686-.602-1.045-.607-1.613-.006-.4.017-.49.175-.793.42-.804 1.459-1.703 2.31-2.001.369-.135.743-.101 1.163.101ZM33.52 8.046c.873.433 1.441 1.023 1.441 1.484 0 .748-1.027 1.945-2.809 3.277-.936.703-3.342 2.21-3.41 2.136-.04-.039.391-1.545.686-2.4.676-1.95 1.47-3.44 2.213-4.165.647-.63 1.124-.714 1.879-.332ZM21.17 23.814v3.233H4.77v-6.465h16.4v3.232Zm23.322 0v3.233H28.321v-6.465h16.172v3.232ZM21.171 40.707v11.355H7.21V29.351h13.96v11.356Zm20.882 0v11.355H28.321V29.351h13.732v11.356Z" fill="#fff"/>
</svg>
