<svg width="55" height="56" fill="none" xmlns="http://www.w3.org/2000/svg">
  <path d="M26.338.964c-3.859.155-7.646 1.12-11.038 2.816-2.79 1.399-4.933 2.94-7.128 5.127-2.162 2.163-3.742 4.35-5.12 7.096l-.473.938v-3.204c0-3.198 0-3.211-.143-3.496-.498-.977-1.942-.777-2.188.298-.084.356-.084 11.679 0 11.679.04 0 2.376-.861 5.199-1.917 3.269-1.223 5.205-1.98 5.347-2.09.557-.434.622-1.211.149-1.71a1.646 1.646 0 0 0-.35-.278c-.395-.207-.666-.136-3.295.848-1.379.518-2.525.939-2.544.939-.058 0 .388-.933.842-1.774a37.45 37.45 0 0 1 1.087-1.787 24.768 24.768 0 0 1 12.76-9.827c2.641-.887 4.978-1.263 7.898-1.27 1.78 0 2.609.06 4.046.292 8.578 1.366 15.874 7.206 19.053 15.24 1.1 2.777 1.631 5.412 1.754 8.68.039.927.071 1.07.324 1.367.505.595 1.495.485 1.903-.207.149-.253.149-.285.117-1.586a26.47 26.47 0 0 0-1.729-8.688A27.127 27.127 0 0 0 36.081 2.369c-2.098-.712-4.59-1.21-6.7-1.353-.726-.045-2.448-.078-3.043-.052Z" fill="#fff"/>
  <path d="M26.117 8.111c-4.848.427-8.13 3.101-9.095 7.406-.227 1.01-.285 1.645-.285 2.946 0 1.586.188 3.12.622 5.023l.148.654-.155.22a3.778 3.778 0 0 0-.537 1.295c-.227 1.14.304 3.282.997 4.046.142.162.35.298.556.376.26.09.337.155.37.291.22 1.036.673 2.188 1.165 2.99.382.616 1.074 1.503 1.36 1.73l.22.174v3.613l-.201.317c-.615.958-1.755 1.586-5.302 2.907-3.25 1.217-4.357 1.728-5.769 2.66l-.79.525-.168-.201-.725-.829c-2.868-3.301-4.868-7.58-5.593-11.976a24.963 24.963 0 0 1-.33-3.328c-.033-.802-.071-1.133-.156-1.333-.362-.848-1.586-.907-2.058-.104-.175.298-.175.317-.156 1.308C.34 34.466 2.275 40 5.738 44.578a27.165 27.165 0 0 0 8.396 7.296c3.063 1.709 6.202 2.738 9.931 3.243.945.13 1.353.143 3.34.143 2.415 0 2.895-.04 4.856-.389 7.238-1.3 13.66-5.548 17.816-11.776.68-1.016.9-1.398 1.58-2.718l.57-1.101.006 3.256c0 3.114.006 3.263.13 3.51.426.834 1.663.815 2.07-.033.13-.266.13-.382.117-6.131l-.019-5.859-5.185 1.949c-2.855 1.074-5.264 2-5.354 2.065-.382.252-.564 1.036-.343 1.457.213.401.621.66 1.055.66.136 0 1.243-.382 2.751-.945 1.386-.518 2.538-.932 2.55-.913.046.039-.718 1.567-1.145 2.285a29.05 29.05 0 0 1-1.735 2.583c-.466.615-1.69 2.046-1.91 2.227-.084.071-.181.02-.667-.343-1.327-.984-2.777-1.709-5.716-2.848-3.34-1.295-4.933-2.227-5.431-3.192-.046-.097-.072-.725-.072-1.936v-1.786l.35-.382c.472-.512 1.133-1.509 1.489-2.26.259-.537.68-1.728.777-2.2.02-.098.123-.208.252-.28.33-.18.855-.705 1.14-1.139.46-.712.783-2.09.692-2.926-.084-.718-.434-1.508-.815-1.832l-.201-.162.162-.537c.602-2.007.841-3.547.835-5.457 0-1.71-.162-2.687-.628-3.878-.693-1.761-2.065-2.946-4.066-3.509-.582-.168-.615-.188-.977-.583-.971-1.061-2.337-1.78-3.8-2.006-.654-.098-1.483-.104-2.422-.02Zm2.409 2.428c1.236.252 2.123.854 2.673 1.819.182.317.208.33.531.375 1.224.162 2.098.531 2.648 1.12.453.492.654.835.887 1.548.712 2.123.434 5.373-.745 8.772-.161.46-.284.848-.271.86.012.007.207.11.44.227.46.227.738.46.88.725.24.454-.052 1.936-.46 2.344-.077.078-.233.103-.614.103h-.512l-.039.24c-.259 1.586-.511 2.33-1.165 3.424-.59.991-1.03 1.503-1.547 1.807l-.298.175v5.353l.155.35c.525 1.191 1.535 2.182 3.037 2.984.757.402 1.644.784 4.026 1.722.926.363 2.182.9 2.784 1.198 1.03.498 2.22 1.21 2.33 1.392.059.09.072.078-.847.783-3.697 2.83-8.132 4.551-12.844 4.979-1.043.097-3.367.097-4.403 0-5.017-.46-9.549-2.305-13.478-5.49-.246-.194-.44-.376-.44-.402 0-.097 1.061-.699 2.084-1.197a41.68 41.68 0 0 1 2.544-1.062c3.878-1.476 4.882-1.93 5.879-2.648.79-.57 1.47-1.327 1.825-2.026l.292-.59v-5.346l-.343-.195c-.855-.479-2.033-2.188-2.474-3.586-.116-.37-.29-1.47-.29-1.839 0-.013-.215-.026-.48-.026-.447 0-.492-.013-.615-.168-.207-.259-.473-1.165-.505-1.709-.045-.673.11-1.049.563-1.347.182-.11.324-.246.324-.297 0-.052-.104-.518-.227-1.036-1.022-4.286-.984-7.328.117-9.588 1.062-2.169 3.107-3.437 6.066-3.78.829-.091 1.968-.078 2.512.032Z" fill="#fff"/>
</svg>
