<svg width="54" height="55" fill="none" xmlns="http://www.w3.org/2000/svg">
  <path d="M36 9.167h4.5a4.46 4.46 0 0 1 3.182 1.342A4.627 4.627 0 0 1 45 13.75v32.083a4.627 4.627 0 0 1-1.318 3.241 4.459 4.459 0 0 1-3.182 1.343h-27a4.459 4.459 0 0 1-3.182-1.343A4.627 4.627 0 0 1 9 45.834V13.75c0-1.216.474-2.381 1.318-3.24A4.459 4.459 0 0 1 13.5 9.166H18" stroke="#363636" stroke-width="3" stroke-linecap="round" stroke-linejoin="round"/>
  <path d="M33.75 4.583h-13.5C19.007 4.583 18 5.61 18 6.875v4.583c0 1.266 1.007 2.292 2.25 2.292h13.5c1.243 0 2.25-1.026 2.25-2.292V6.875c0-1.266-1.007-2.292-2.25-2.292Z" stroke="#363636" stroke-width="3" stroke-linecap="round" stroke-linejoin="round"/>
  <path fill="#6C0BF4" d="M17 23h20v3H17zm0 7h20v3H17zm0 7h20v3H17z"/>
</svg>
