<svg width="60" height="60" fill="none" xmlns="http://www.w3.org/2000/svg">
  <path d="M38.305 15.563H6.8a2 2 0 0 0-2 2V50.4a2 2 0 0 0 2 2h41.86a6.14 6.14 0 0 0 6.14-6.14m0 0V16.4a8 8 0 0 0-8-8h-.31a2 2 0 0 0-2 2v27.108c0 1.143.96 2.048 2.099 2.149 3.563.316 8.21 1.891 8.21 6.604Z" stroke="#363636" stroke-width="3"/>
  <path d="M14.037 44.873V25.947a2 2 0 0 1 2-2h10.757m-4.725 15.446v2.987a1 1 0 0 0 1 1h14.064a1 1 0 0 0 1-1V25.946a2 2 0 0 0-2-2h-9.339m-6.23 9.156h5.23a1 1 0 0 0 1-1v-8.156" stroke="#6C0BF4" stroke-width="3"/>
</svg>
