<svg width="50" height="51" fill="none" xmlns="http://www.w3.org/2000/svg">
  <path d="M25 31.875c3.452 0 6.25-2.854 6.25-6.375 0-3.52-2.798-6.375-6.25-6.375s-6.25 2.854-6.25 6.375c0 3.52 2.798 6.375 6.25 6.375Z" stroke="#6C0BF4" stroke-width="3" stroke-linecap="round" stroke-linejoin="round"/>
  <path d="M40.417 31.875a3.571 3.571 0 0 0-.238 2.041c.123.69.445 1.326.925 1.827l.125.127c.388.395.695.863.905 1.38a4.325 4.325 0 0 1 0 3.254c-.21.516-.517.985-.905 1.38a4.162 4.162 0 0 1-1.352.922 4.097 4.097 0 0 1-3.191 0 4.163 4.163 0 0 1-1.353-.922l-.125-.128a3.416 3.416 0 0 0-1.79-.943 3.377 3.377 0 0 0-2.001.242 3.454 3.454 0 0 0-1.512 1.287 3.556 3.556 0 0 0-.572 1.922v.361a4.293 4.293 0 0 1-1.22 3.005 4.126 4.126 0 0 1-2.946 1.245 4.126 4.126 0 0 1-2.947-1.245A4.293 4.293 0 0 1 21 44.625v-.191a3.554 3.554 0 0 0-.64-1.958 3.447 3.447 0 0 0-1.61-1.251 3.376 3.376 0 0 0-2.001-.242c-.676.125-1.3.453-1.79.943l-.126.128a4.164 4.164 0 0 1-1.352.922 4.097 4.097 0 0 1-3.191 0 4.163 4.163 0 0 1-1.353-.922 4.258 4.258 0 0 1-.904-1.38 4.324 4.324 0 0 1 0-3.255c.21-.516.517-.984.904-1.379l.125-.127a3.568 3.568 0 0 0 .688-3.868 3.49 3.49 0 0 0-1.262-1.542 3.39 3.39 0 0 0-1.884-.583H6.25a4.126 4.126 0 0 1-2.946-1.245 4.293 4.293 0 0 1-1.22-3.005 4.29 4.29 0 0 1 1.22-3.005A4.126 4.126 0 0 1 6.25 21.42h.187a3.393 3.393 0 0 0 1.92-.653 3.5 3.5 0 0 0 1.226-1.642 3.57 3.57 0 0 0 .238-2.041 3.53 3.53 0 0 0-.925-1.826l-.125-.128a4.256 4.256 0 0 1-.905-1.38 4.324 4.324 0 0 1 0-3.254c.21-.516.517-.985.905-1.38a4.162 4.162 0 0 1 1.352-.922 4.096 4.096 0 0 1 3.191 0c.506.214.966.527 1.353.922l.125.128a3.381 3.381 0 0 0 3.791.701h.167a3.454 3.454 0 0 0 1.512-1.287 3.55 3.55 0 0 0 .571-1.922v-.361c0-1.127.44-2.208 1.22-3.005A4.126 4.126 0 0 1 25 2.125c1.105 0 2.165.448 2.946 1.245a4.293 4.293 0 0 1 1.22 3.005v.191a3.56 3.56 0 0 0 .572 1.922c.37.57.896 1.018 1.512 1.287a3.376 3.376 0 0 0 2.001.242 3.415 3.415 0 0 0 1.79-.943l.126-.128a4.163 4.163 0 0 1 1.352-.922 4.096 4.096 0 0 1 3.191 0c.506.214.965.527 1.352.922.388.395.695.864.905 1.38a4.324 4.324 0 0 1 0 3.255c-.21.516-.517.984-.904 1.379l-.126.127a3.53 3.53 0 0 0-.924 1.827c-.123.69-.04 1.4.237 2.041v.17a3.491 3.491 0 0 0 1.261 1.542c.56.378 1.214.58 1.885.583h.354c1.105 0 2.165.448 2.946 1.245a4.293 4.293 0 0 1 1.22 3.005 4.293 4.293 0 0 1-1.22 3.005 4.126 4.126 0 0 1-2.946 1.245h-.188a3.389 3.389 0 0 0-1.884.583 3.49 3.49 0 0 0-1.261 1.542v0Z" stroke="#363636" stroke-width="3" stroke-linecap="round" stroke-linejoin="round"/>
</svg>
