<svg width="28" height="22" fill="none" xmlns="http://www.w3.org/2000/svg">
  <g opacity=".3" fill-rule="evenodd" clip-rule="evenodd" fill="#929292">
    <path d="M4 2c-.823 0-1.5.677-1.5 1.5v15c0 .823.677 1.5 1.5 1.5h20c.823 0 1.5-.677 1.5-1.5v-15c0-.823-.677-1.5-1.5-1.5H4ZM.5 3.5C.5 1.573 2.073 0 4 0h20c1.927 0 3.5 1.573 3.5 3.5v15c0 1.927-1.573 3.5-3.5 3.5H4a3.507 3.507 0 0 1-3.5-3.5v-15Z"/>
    <path d="M.68 2.927a1 1 0 0 1 1.393-.246L14 11.029l11.927-8.348a1 1 0 1 1 1.146 1.638l-12.5 8.75a1 1 0 0 1-1.146 0L.927 4.32A1 1 0 0 1 .68 2.927Z"/>
  </g>
</svg>
