<svg width="26" height="31" fill="none" xmlns="http://www.w3.org/2000/svg">
  <path opacity=".3" fill-rule="evenodd" clip-rule="evenodd" d="M13 2.75A10.25 10.25 0 0 0 2.75 13c0 3.973 2.578 7.792 5.35 10.718a37.032 37.032 0 0 0 4.9 4.308 37.03 37.03 0 0 0 4.899-4.307C20.672 20.791 23.25 16.972 23.25 13A10.25 10.25 0 0 0 13 2.75Zm0 26.5-.555.832-.004-.003-.007-.005-.028-.019-.102-.07a35.312 35.312 0 0 1-1.685-1.262 39.03 39.03 0 0 1-3.97-3.629C3.797 22.084.75 17.777.75 13a12.25 12.25 0 1 1 24.5 0c0 4.777-3.047 9.083-5.899 12.094a39.027 39.027 0 0 1-5.282 4.627 22.83 22.83 0 0 1-.475.334l-.028.02-.008.005-.002.001s-.001.001-.556-.831Zm0 0 .555.832a1.001 1.001 0 0 1-1.11 0L13 29.25Z" fill="#929292"/>
  <path opacity=".3" fill-rule="evenodd" clip-rule="evenodd" d="M13 10.25a2.75 2.75 0 1 0 0 5.5 2.75 2.75 0 0 0 0-5.5ZM8.25 13a4.75 4.75 0 1 1 9.5 0 4.75 4.75 0 0 1-9.5 0Z" fill="#929292"/>
</svg>
