<svg width="28" height="28" fill="none" xmlns="http://www.w3.org/2000/svg">
  <path opacity=".3" d="M26.5 20.15v3.75a2.5 2.5 0 0 1-2.725 2.5 24.737 24.737 0 0 1-10.787-3.837 24.375 24.375 0 0 1-7.5-7.5A24.737 24.737 0 0 1 1.65 4.225 2.5 2.5 0 0 1 4.137 1.5h3.75a2.5 2.5 0 0 1 2.5 2.15c.159 1.2.452 2.378.875 3.512A2.5 2.5 0 0 1 10.7 9.8l-1.588 1.587a20 20 0 0 0 7.5 7.5L18.2 17.3a2.5 2.5 0 0 1 2.637-.563 16.05 16.05 0 0 0 3.513.876 2.5 2.5 0 0 1 2.15 2.537Z" stroke="#929292" stroke-width="2" stroke-linecap="round" stroke-linejoin="round"/>
</svg>
